HIERARCHY
ROOT Hips
{
	OFFSET -0.066283 88.859909 3.106752
	CHANNELS 6 Xposition Yposition Zposition Zrotation Yrotation Xrotation 
	JOINT Spine
	{
		OFFSET -0.000000 8.814246 -2.080107
		CHANNELS 3 Zrotation Yrotation Xrotation
		JOINT Spine1
		{
			OFFSET -0.000000 8.844141 0.000000
			CHANNELS 3 Zrotation Yrotation Xrotation
			JOINT Spine2
			{
				OFFSET 0.000000 11.682268 0.000000
				CHANNELS 3 Zrotation Yrotation Xrotation
				JOINT Spine3
				{
					OFFSET -0.000000 11.746700 0.000000
					CHANNELS 3 Zrotation Yrotation Xrotation
					JOINT Neck
					{
						OFFSET -0.000000 17.658264 0.000000
						CHANNELS 3 Zrotation Yrotation Xrotation
						JOINT Neck1
						{
							OFFSET 0.000000 5.101515 -0.000000
							CHANNELS 3 Zrotation Yrotation Xrotation
							JOINT Head
							{
								OFFSET -0.000000 5.101515 -0.000000
								CHANNELS 3 Zrotation Yrotation Xrotation
								JOINT HeadEnd
								{
									OFFSET 0.000000 11.655085 -0.000000
									CHANNELS 3 Zrotation Yrotation Xrotation
									End Site
									{
										OFFSET 0.000000 0.000000 0.000000
									}
								}
							}
						}
					}
					JOINT RightShoulder
					{
						OFFSET -2.625389 11.175210 -0.000000
						CHANNELS 3 Zrotation Yrotation Xrotation
						JOINT RightArm
						{
							OFFSET 0.000000 10.434715 -0.000000
							CHANNELS 3 Zrotation Yrotation Xrotation
							JOINT RightForeArm
							{
								OFFSET -0.000000 29.628420 0.000000
								CHANNELS 3 Zrotation Yrotation Xrotation
								JOINT RightHand
								{
									OFFSET -0.000000 22.857611 0.000000
									CHANNELS 3 Zrotation Yrotation Xrotation
									JOINT RightHandThumb1
									{
										OFFSET -2.867323 3.959563 2.944291
										CHANNELS 3 Zrotation Yrotation Xrotation
										JOINT RightHandThumb2
										{
											OFFSET -0.000000 3.350399 0.000000
											CHANNELS 3 Zrotation Yrotation Xrotation
											JOINT RightHandThumb3
											{
												OFFSET -0.000000 3.756509 -0.000000
												CHANNELS 3 Zrotation Yrotation Xrotation
												JOINT RightHandThumb4
												{
													OFFSET -0.000000 3.147345 0.000000
													CHANNELS 3 Zrotation Yrotation Xrotation
													End Site
													{
														OFFSET 0.000000 0.000000 0.000000
													}
												}
											}
										}
									}
									JOINT RightHandIndex1
									{
										OFFSET -0.086752 10.030893 2.345280
										CHANNELS 3 Zrotation Yrotation Xrotation
										JOINT RightHandIndex2
										{
											OFFSET 0.000000 4.061090 -0.000000
											CHANNELS 3 Zrotation Yrotation Xrotation
											JOINT RightHandIndex3
											{
												OFFSET 0.000000 3.248873 -0.000000
												CHANNELS 3 Zrotation Yrotation Xrotation
												JOINT RightHandIndex4
												{
													OFFSET 0.000000 2.639709 0.000000
													CHANNELS 3 Zrotation Yrotation Xrotation
													End Site
													{
														OFFSET 0.000000 0.000000 0.000000
													}
												}
											}
										}
									}
									JOINT RightHandMiddle1
									{
										OFFSET 0.104102 9.502952 0.006768
										CHANNELS 3 Zrotation Yrotation Xrotation
										JOINT RightHandMiddle2
										{
											OFFSET 0.000000 4.568727 0.000000
											CHANNELS 3 Zrotation Yrotation Xrotation
											JOINT RightHandMiddle3
											{
												OFFSET 0.000000 3.654981 -0.000000
												CHANNELS 3 Zrotation Yrotation Xrotation
												JOINT RightHandMiddle4
												{
													OFFSET -0.000000 2.741236 0.000000
													CHANNELS 3 Zrotation Yrotation Xrotation
													End Site
													{
														OFFSET 0.000000 0.000000 0.000000
													}
												}
											}
										}
									}
									JOINT RightHandRing1
									{
										OFFSET 0.086752 8.921708 -2.267442
										CHANNELS 3 Zrotation Yrotation Xrotation
										JOINT RightHandRing2
										{
											OFFSET 0.000000 4.061090 -0.000000
											CHANNELS 3 Zrotation Yrotation Xrotation
											JOINT RightHandRing3
											{
												OFFSET -0.000000 3.654981 0.000000
												CHANNELS 3 Zrotation Yrotation Xrotation
												JOINT RightHandRing4
												{
													OFFSET -0.000000 2.741236 0.000000
													CHANNELS 3 Zrotation Yrotation Xrotation
													End Site
													{
														OFFSET 0.000000 0.000000 0.000000
													}
												}
											}
										}
									}
									JOINT RightHandPinky1
									{
										OFFSET -0.173504 7.976997 -4.467199
										CHANNELS 3 Zrotation Yrotation Xrotation
										JOINT RightHandPinky2
										{
											OFFSET -0.000000 3.350399 0.000000
											CHANNELS 3 Zrotation Yrotation Xrotation
											JOINT RightHandPinky3
											{
												OFFSET 0.000000 2.842763 0.000000
												CHANNELS 3 Zrotation Yrotation Xrotation
												JOINT RightHandPinky4
												{
													OFFSET 0.000000 2.639709 0.000000
													CHANNELS 3 Zrotation Yrotation Xrotation
													End Site
													{
														OFFSET 0.000000 0.000000 0.000000
													}
												}
											}
										}
									}
									JOINT RightForeArmEnd
									{
										OFFSET 0.000000 0.000000 0.000000
										CHANNELS 3 Zrotation Yrotation Xrotation
										End Site
										{
											OFFSET 0.000000 0.000000 0.000000
										}
									}
								}
								JOINT RightArmEnd
								{
									OFFSET 0.000000 0.000000 0.000000
									CHANNELS 3 Zrotation Yrotation Xrotation
									End Site
									{
										OFFSET 0.000000 0.000000 0.000000
									}
								}
							}
						}
					}
					JOINT LeftShoulder
					{
						OFFSET 2.625389 11.175210 0.000000
						CHANNELS 3 Zrotation Yrotation Xrotation
						JOINT LeftArm
						{
							OFFSET -0.000000 10.813635 -0.000000
							CHANNELS 3 Zrotation Yrotation Xrotation
							JOINT LeftForeArm
							{
								OFFSET -0.000000 28.724781 -0.000000
								CHANNELS 3 Zrotation Yrotation Xrotation
								JOINT LeftHand
								{
									OFFSET 0.644384 25.716167 -0.328871
									CHANNELS 3 Zrotation Yrotation Xrotation
									JOINT LeftHandThumb1
									{
										OFFSET 2.867323 3.959563 2.944291
										CHANNELS 3 Zrotation Yrotation Xrotation
										JOINT LeftHandThumb2
										{
											OFFSET 0.000000 3.350399 0.000000
											CHANNELS 3 Zrotation Yrotation Xrotation
											JOINT LeftHandThumb3
											{
												OFFSET -0.000000 3.756509 -0.000000
												CHANNELS 3 Zrotation Yrotation Xrotation
												JOINT LeftHandThumb4
												{
													OFFSET 0.000000 3.100000 0.000000
													CHANNELS 3 Zrotation Yrotation Xrotation
													End Site
													{
														OFFSET 0.000000 0.000000 0.000000
													}
												}
											}
										}
									}
									JOINT LeftHandIndex1
									{
										OFFSET 0.086752 10.030893 2.345280
										CHANNELS 3 Zrotation Yrotation Xrotation
										JOINT LeftHandIndex2
										{
											OFFSET 0.000000 4.061090 0.000000
											CHANNELS 3 Zrotation Yrotation Xrotation
											JOINT LeftHandIndex3
											{
												OFFSET -0.000000 3.248873 -0.000000
												CHANNELS 3 Zrotation Yrotation Xrotation
												JOINT LeftHandIndex4
												{
													OFFSET 0.000000 2.639709 0.000000
													CHANNELS 3 Zrotation Yrotation Xrotation
													End Site
													{
														OFFSET 0.000000 0.000000 0.000000
													}
												}
											}
										}
									}
									JOINT LeftHandMiddle1
									{
										OFFSET -0.104102 9.502952 0.006768
										CHANNELS 3 Zrotation Yrotation Xrotation
										JOINT LeftHandMiddle2
										{
											OFFSET -0.000000 4.568727 -0.000000
											CHANNELS 3 Zrotation Yrotation Xrotation
											JOINT LeftHandMiddle3
											{
												OFFSET -0.000000 3.654981 -0.000000
												CHANNELS 3 Zrotation Yrotation Xrotation
												JOINT LeftHandMiddle4
												{
													OFFSET 0.000000 2.741236 0.000000
													CHANNELS 3 Zrotation Yrotation Xrotation
													End Site
													{
														OFFSET 0.000000 0.000000 0.000000
													}
												}
											}
										}
									}
									JOINT LeftHandRing1
									{
										OFFSET -0.086752 8.921708 -2.267442
										CHANNELS 3 Zrotation Yrotation Xrotation
										JOINT LeftHandRing2
										{
											OFFSET 0.000000 4.061090 0.000000
											CHANNELS 3 Zrotation Yrotation Xrotation
											JOINT LeftHandRing3
											{
												OFFSET 0.000000 3.654981 -0.000000
												CHANNELS 3 Zrotation Yrotation Xrotation
												JOINT LeftHandRing4
												{
													OFFSET -0.000000 2.741236 -0.000000
													CHANNELS 3 Zrotation Yrotation Xrotation
													End Site
													{
														OFFSET 0.000000 0.000000 0.000000
													}
												}
											}
										}
									}
									JOINT LeftHandPinky1
									{
										OFFSET 0.173504 7.976997 -4.467199
										CHANNELS 3 Zrotation Yrotation Xrotation
										JOINT LeftHandPinky2
										{
											OFFSET -0.000000 3.350399 -0.000000
											CHANNELS 3 Zrotation Yrotation Xrotation
											JOINT LeftHandPinky3
											{
												OFFSET 0.000000 2.842763 -0.000000
												CHANNELS 3 Zrotation Yrotation Xrotation
												JOINT LeftHandPinky4
												{
													OFFSET -0.000000 2.639709 -0.000000
													CHANNELS 3 Zrotation Yrotation Xrotation
													End Site
													{
														OFFSET 0.000000 0.000000 0.000000
													}
												}
											}
										}
									}
									JOINT LeftForeArmEnd
									{
										OFFSET 0.000000 0.000000 0.000000
										CHANNELS 3 Zrotation Yrotation Xrotation
										End Site
										{
											OFFSET 0.000000 0.000000 0.000000
										}
									}
								}
								JOINT LeftArmEnd
								{
									OFFSET 0.000000 0.000000 0.000000
									CHANNELS 3 Zrotation Yrotation Xrotation
									End Site
									{
										OFFSET 0.000000 0.000000 0.000000
									}
								}
							}
						}
					}
				}
			}
		}
	}
	JOINT RightUpLeg
	{
		OFFSET -11.289943 -0.000000 0.000000
		CHANNELS 3 Zrotation Yrotation Xrotation
		JOINT RightLeg
		{
			OFFSET 0.000000 -38.200325 -0.000000
			CHANNELS 3 Zrotation Yrotation Xrotation
			JOINT RightFoot
			{
				OFFSET -0.000000 -39.900856 0.000000
				CHANNELS 3 Zrotation Yrotation Xrotation
				JOINT RightToeBase
				{
					OFFSET 0.000000 0.000000 15.261641
					CHANNELS 3 Zrotation Yrotation Xrotation
					JOINT RightToeBaseEnd
					{
						OFFSET 0.000000 0.000000 7.370709
						CHANNELS 3 Zrotation Yrotation Xrotation
						End Site
						{
							OFFSET 0.000000 0.000000 0.000000
						}
					}
				}
				JOINT RightLegEnd
				{
					OFFSET 0.000000 0.000000 0.000000
					CHANNELS 3 Zrotation Yrotation Xrotation
					End Site
					{
						OFFSET 0.000000 0.000000 0.000000
					}
				}
			}
			JOINT RightUpLegEnd
			{
				OFFSET 0.000000 0.000000 0.000000
				CHANNELS 3 Zrotation Yrotation Xrotation
				End Site
				{
					OFFSET 0.000000 0.000000 0.000000
				}
			}
		}
	}
	JOINT LeftUpLeg
	{
		OFFSET 11.315661 0.000000 0.000000
		CHANNELS 3 Zrotation Yrotation Xrotation
		JOINT LeftLeg
		{
			OFFSET 0.000000 -38.200325 -0.000000
			CHANNELS 3 Zrotation Yrotation Xrotation
			JOINT LeftFoot
			{
				OFFSET 0.000000 -39.900856 -0.000000
				CHANNELS 3 Zrotation Yrotation Xrotation
				JOINT LeftToeBase
				{
					OFFSET 0.000000 -0.000000 15.261641
					CHANNELS 3 Zrotation Yrotation Xrotation
					JOINT LeftToeBaseEnd
					{
						OFFSET -0.000000 0.000000 7.539996
						CHANNELS 3 Zrotation Yrotation Xrotation
						End Site
						{
							OFFSET 0.000000 0.000000 0.000000
						}
					}
				}
				JOINT LeftLegEnd
				{
					OFFSET 0.000000 0.000000 0.000000
					CHANNELS 3 Zrotation Yrotation Xrotation
					End Site
					{
						OFFSET 0.000000 0.000000 0.000000
					}
				}
			}
			JOINT LeftUpLegEnd
			{
				OFFSET 0.000000 0.000000 0.000000
				CHANNELS 3 Zrotation Yrotation Xrotation
				End Site
				{
					OFFSET 0.000000 0.000000 0.000000
				}
			}
		}
	}
}
MOTION
Frames: 4
Frame Time: 0.016667
-1.587069 88.418465 0.355543 -0.576700 -4.196188 -12.846867 0.022200 -0.128507 7.086274 -0.153653 0.028935 1.682678 1.473015 -1.618318 5.379547 1.343214 -0.467900 6.074430 -3.721568 2.658407 6.825958 -0.067245 2.259331 -1.731384 -1.664206 -0.047367 -21.302084 0.000000 0.000000 0.000000 86.773308 0.049668 2.294163 69.039902 7.294274 -3.323914 -0.663447 17.128923 100.397552 31.575785 37.335266 5.679641 6.261904 -1.239426 42.016064 0.000002 0.000010 -15.118261 -0.000003 0.000047 -10.547647 0.000005 -0.000004 0.000007 -6.282652 17.541529 8.526512 0.567168 -1.097319 0.301784 0.400255 -0.110687 0.278469 -0.000006 0.000018 -0.000005 -6.087507 7.234597 0.977874 0.502442 -1.063744 0.083832 0.601217 -0.055680 0.084644 -0.000014 0.000136 0.000002 2.876403 -9.174714 -8.655401 2.348077 2.069795 0.067782 2.250543 0.047495 0.064012 -0.000004 -0.000407 0.000010 17.441441 -25.191141 -21.069096 5.286602 4.020917 1.393672 5.259861 -0.013248 1.139778 0.000129 0.000007 -0.000020 0.000000 0.000000 0.000000 0.000000 0.000000 0.000000 -89.203186 -0.123901 7.167646 -71.553452 -1.888852 -2.967868 0.633350 -18.480165 97.671501 -7.276197 -26.173256 0.728917 -7.525181 1.493650 41.292221 0.000012 0.000016 -18.441965 0.000038 -0.000024 -12.980818 0.001582 0.000029 0.000289 3.123127 16.898016 1.582954 -0.325456 -1.096358 -0.276192 -0.191518 -0.105198 -0.218911 0.000004 -0.001192 0.000003 2.194778 6.963799 -3.817147 -0.254778 -1.053812 -0.102338 -0.037497 -0.047123 -0.080207 -0.001120 -0.000005 0.000044 2.332354 -8.885264 -12.246336 -0.641576 2.065240 -0.046610 -0.372960 0.037009 -0.022430 -0.000904 0.000010 -0.000000 7.777445 -25.049509 -22.556681 -1.094527 4.059703 -0.302544 -1.234828 0.056558 -0.320224 -0.000766 0.000003 -0.000049 0.000000 0.000000 0.000000 0.000000 0.000000 0.000000 2.467636 6.968132 10.703393 -0.110028 -0.371012 11.630389 -4.961728 3.820292 15.291186 -0.333959 0.343770 -19.138285 0.000000 0.000000 0.000000 0.000000 0.000000 0.000000 0.000000 0.000000 0.000000 3.697558 12.500684 19.688007 0.116828 0.921694 4.514936 -1.112466 9.746728 14.985433 1.145166 -1.113661 -17.752407 0.000000 0.000000 0.000000 0.000000 0.000000 0.000000 0.000000 0.000000 0.000000 
-1.584414 88.416061 0.372360 -0.578822 -4.172646 -12.831567 0.035035 -0.123488 7.083196 -0.135095 0.028030 1.702714 1.440662 -1.583811 5.365066 1.319290 -0.459439 6.080945 -3.763829 2.663912 6.726056 -0.088512 2.224577 -1.773571 -1.662244 -0.047345 -21.258348 0.000000 0.000000 0.000000 86.759766 0.049098 2.319313 69.048210 7.501009 -3.350814 -0.661963 17.158714 100.542130 31.403826 37.325119 5.594681 6.262061 -1.240769 42.015446 0.000001 0.000010 -15.118489 -0.000003 0.000047 -10.548868 0.000005 -0.000004 0.000006 -6.246598 17.540854 8.459123 0.572171 -1.097042 0.301739 0.405930 -0.110235 0.278825 -0.000006 0.000018 -0.000005 -6.031596 7.233523 0.940739 0.508086 -1.063762 0.083942 0.603691 -0.055582 0.085196 -0.000014 0.000135 0.000003 2.955075 -9.171821 -8.656555 2.352011 2.069557 0.066369 2.257109 0.047382 0.062929 -0.000005 -0.000442 0.000010 17.535879 -25.172493 -21.051678 5.298102 4.020241 1.390589 5.271639 -0.013812 1.136574 0.000107 0.000007 -0.000021 0.000000 0.000000 0.000000 0.000000 0.000000 0.000000 -89.218971 -0.111168 7.189232 -71.638924 -1.928959 -3.095325 0.618322 -18.513544 97.684349 -7.250403 -26.334528 0.666853 -7.547225 1.497078 41.282272 0.000012 0.000016 -18.488472 0.000039 -0.000024 -13.017479 0.001541 0.000029 0.000312 2.971974 16.901602 1.477520 -0.351400 -1.096124 -0.277641 -0.221237 -0.104827 -0.220918 0.000004 -0.001192 0.000003 2.044069 6.964769 -3.886628 -0.284957 -1.053783 -0.102915 -0.069862 -0.047049 -0.081184 -0.001137 -0.000005 0.000045 2.155287 -8.886096 -12.280890 -0.686291 2.065092 -0.046527 -0.416620 0.036853 -0.022426 -0.000924 0.000010 -0.000000 7.576642 -25.057783 -22.560940 -1.143284 4.059402 -0.306395 -1.280997 0.055297 -0.323281 -0.000769 0.000003 -0.000049 0.000000 0.000000 0.000000 0.000000 0.000000 0.000000 2.462425 6.967288 10.707567 -0.109522 -0.368703 11.620152 -4.949037 3.796999 15.285515 -0.334167 0.342352 -19.119085 0.000000 0.000000 0.000000 0.000000 0.000000 0.000000 0.000000 0.000000 0.000000 3.709998 12.542603 19.673479 0.115927 0.919049 4.509640 -1.105370 9.752069 14.998493 1.144428 -1.114064 -17.743374 0.000000 0.000000 0.000000 0.000000 0.000000 0.000000 0.000000 0.000000 0.000000 
-1.581867 88.413475 0.389730 -0.583395 -4.139889 -12.816106 0.047218 -0.117242 7.078492 -0.115353 0.027390 1.722944 1.407560 -1.548378 5.344314 1.295601 -0.450845 6.082345 -3.807822 2.672163 6.624623 -0.109669 2.190529 -1.819290 -1.661577 -0.048094 -21.215342 0.000000 0.000000 0.000000 86.750015 0.049453 2.343846 69.047668 7.731493 -3.378029 -0.659014 17.177662 100.724442 31.359241 37.313057 5.612167 6.269222 -1.243086 42.011742 0.000001 0.000010 -15.134973 -0.000003 0.000047 -10.560690 0.000005 -0.000003 0.000006 -6.178548 17.540684 8.388324 0.581090 -1.096636 0.300765 0.415213 -0.109643 0.278401 -0.000006 0.000018 -0.000005 -5.942956 7.232476 0.899129 0.517732 -1.063736 0.083578 0.609959 -0.055410 0.085399 -0.000014 0.000134 0.000003 3.066845 -9.168446 -8.664551 2.360856 2.069297 0.065543 2.268297 0.047226 0.062332 -0.000005 -0.000480 0.000010 17.660461 -25.151419 -21.040949 5.315388 4.019506 1.389324 5.288453 -0.014529 1.134998 0.000085 0.000007 -0.000021 0.000000 0.000000 0.000000 0.000000 0.000000 0.000000 -89.237206 -0.098561 7.214586 -71.724205 -1.997589 -3.204217 0.604882 -18.546019 97.727539 -7.283828 -26.497698 0.675215 -7.572937 1.501226 41.270485 0.000012 0.000016 -18.543818 0.000040 -0.000023 -13.060014 0.001494 0.000029 0.000342 2.804821 16.904516 1.385104 -0.379752 -1.095893 -0.278533 -0.253558 -0.104484 -0.222321 0.000004 -0.001187 0.000003 1.876300 6.965421 -3.946476 -0.316967 -1.053733 -0.103238 -0.104458 -0.046973 -0.081933 -0.001142 -0.000005 0.000047 1.963734 -8.886480 -12.309631 -0.732910 2.064908 -0.046811 -0.462587 0.036696 -0.022721 -0.000942 0.000010 -0.000000 7.364432 -25.064922 -22.561543 -1.192837 4.059129 -0.311267 -1.329249 0.054112 -0.327396 -0.000772 0.000002 -0.000049 0.000000 0.000000 0.000000 0.000000 0.000000 0.000000 2.456547 6.959324 10.716901 -0.109197 -0.367099 11.606565 -4.932404 3.771842 15.277990 -0.334525 0.341323 -19.101179 0.000000 0.000000 0.000000 0.000000 0.000000 0.000000 0.000000 0.000000 0.000000 3.725425 12.583108 19.658691 0.115005 0.916440 4.505939 -1.098176 9.753584 15.011272 1.143734 -1.113886 -17.737896 0.000000 0.000000 0.000000 0.000000 0.000000 0.000000 0.000000 0.000000 0.000000 
-1.580278 88.410561 0.408008 -0.592152 -4.100057 -12.801787 0.060125 -0.109948 7.071581 -0.095237 0.027181 1.742031 1.375898 -1.512254 5.319042 1.272754 -0.442016 6.078624 -3.851836 2.683093 6.524860 -0.130903 2.158802 -1.867489 -1.662657 -0.049540 -21.175882 0.000000 0.000000 0.000000 86.743683 0.050757 2.366215 69.037979 7.988106 -3.406149 -0.655740 17.183735 100.944641 31.440277 37.288960 5.724535 6.283370 -1.246344 42.004875 0.000001 0.000010 -15.167896 -0.000003 0.000047 -10.583217 0.000005 -0.000003 0.000006 -6.081125 17.540710 8.316197 0.592990 -1.096172 0.298895 0.427585 -0.109008 0.277163 -0.000006 0.000018 -0.000005 -5.823921 7.231324 0.854256 0.530595 -1.063698 0.082728 0.619216 -0.055183 0.085233 -0.000013 0.000133 0.000003 3.208153 -9.164509 -8.680234 2.373763 2.069047 0.065373 2.283180 0.047052 0.062280 -0.000005 -0.000523 0.000010 17.810015 -25.128664 -21.038670 5.337114 4.018857 1.390118 5.309044 -0.015311 1.135340 0.000063 0.000007 -0.000021 0.000000 0.000000 0.000000 0.000000 0.000000 0.000000 -89.259308 -0.085683 7.242156 -71.810814 -2.090618 -3.293280 0.592203 -18.578550 97.801613 -7.372725 -26.639210 0.741612 -7.600212 1.505746 41.257801 0.000012 0.000016 -18.603323 0.000041 -0.000023 -13.105347 0.001442 0.000029 0.000380 2.633520 16.906986 1.308934 -0.407691 -1.095768 -0.279057 -0.285574 -0.104282 -0.223232 0.000004 -0.001175 0.000003 1.703048 6.965774 -3.993824 -0.347710 -1.053701 -0.103389 -0.137795 -0.046926 -0.082509 -0.001137 -0.000005 0.000048 1.770942 -8.886316 -12.331716 -0.775935 2.064753 -0.047330 -0.505191 0.036582 -0.023252 -0.000959 0.000010 -0.000000 7.155089 -25.069916 -22.559891 -1.236742 4.059017 -0.316664 -1.373254 0.053143 -0.332228 -0.000776 0.000002 -0.000049 0.000000 0.000000 0.000000 0.000000 0.000000 0.000000 2.452310 6.943191 10.733802 -0.109021 -0.366176 11.588657 -4.912145 3.744058 15.268841 -0.334938 0.340673 -19.084227 0.000000 0.000000 0.000000 0.000000 0.000000 0.000000 0.000000 0.000000 0.000000 3.745776 12.620005 19.646658 0.114139 0.914109 4.502902 -1.091063 9.752125 15.023270 1.143514 -1.113144 -17.735838 0.000000 0.000000 0.000000 0.000000 0.000000 0.000000 0.000000 0.000000 0.000000 
